# xmcd
#
# Track frame offsets:
#	150
#	13645
#	33151
#	50605
#	67037
#	85135
#	105118
#	127720
#	145939
#	164264
#	184904
#	202282
#	218820
#	237736
#	252683
#	270740
#	283709
#	304387
#	331815
#
# Disc length: 4430 seconds
#
# Revision: 0
# Processed by: cddbd v1.5.1PL0 Copyright (c) Steve Scherf et al.
# Submitted via: audiograbber 1.83.01
#
DISCID=1e114c13
DTITLE=Various Artist - Tt119
DYEAR=1900
DGENRE=Karaoke
TTITLE0=Kevin Denney - Cadillac Tears
TTITLE1=Pat Green - Carry On
TTITLE2=Alan Jackson and George Strait - Designated Driver
TTITLE3=Mongomery Gentry - Didn't I
TTITLE4=Alan Jackson - Drive (For Daddy Gene)
TTITLE5=Richard Marx and Chelywright - Edge Of Forever
TTITLE6=Johnny Cash and Dave Mathews - For You
TTITLE7=Chris Cagle - I Breath In I Breath Out
TTITLE8=Brian Mccomas - I Could Never Love You Enough
TTITLE9=Jamie O'niel and Mark Wills - I'm Not Going To Do Anything Without You
TTITLE10=Charlie Robinson - Life Of The Party
TTITLE11=George Strait - Living And Living Well
TTITLE12=Clint Black - Money Of Love
TTITLE13=Mark Chestnut - She Was
TTITLE14=Kevin Denney - That's Just Jesse
TTITLE15=Garth Brooks - Thicker Than Blood
TTITLE16=Willie Nelson - This Face
TTITLE17=Tommy Stiener - What If She's An Angel
TTITLE18=Data Track - Data Track
EXTD=
EXTT0=
EXTT1=
EXTT2=
EXTT3=
EXTT4=
EXTT5=
EXTT6=
EXTT7=
EXTT8=
EXTT9=
EXTT10=
EXTT11=
EXTT12=
EXTT13=
EXTT14=
EXTT15=
EXTT16=
EXTT17=
EXTT18=
PLAYORDER=
